PathFileType	4	(X/Y/Z)	D:\TRACE\v60_Jaco2_6-2-23\JustArmDRS_Motion1_3-v60.trc
DataRate	CameraRate	NumFrames	NumMarkers	Units	OrigDataRate	OrigDataStartFrame	OrigNumFrames
100.00	100.00	      17	9	mm	100.00	5073	      6763
Frame#	Time	front left toe			Front right toe			aft left toe			aft right toe			Arm			FL body			FR body			AL Body			AR Body			
		X1	Y1	Z1	X2	Y2	Z2	X3	Y3	Z3	X4	Y4	Z4	X5	Y5	Z5	X6	Y6	Z6	X7	Y7	Z7	X8	Y8	Z8	X9	Y9	Z9	

5073	50.720	-250.15707	20.73012	-164.27707	157.52673	19.46512	-209.70695	-183.88190	14.70091	439.98117	218.75658	17.62503	427.60065	-0.58069	1109.70264	-618.72870	-141.65904	577.32275	-309.95251	17.79580	580.86206	-328.03000	-37.94775	586.02838	629.29797	118.26306	583.60730	613.87958	
5074	50.730	-249.93631	20.88102	-164.17416	157.68956	19.57125	-209.66666	-183.55795	14.48061	440.14639	218.88498	17.47157	427.76746	0.26147	1109.58447	-619.27283	-141.63039	577.41119	-309.82153	17.76570	580.90656	-327.84296	-38.09660	585.87305	629.86578	118.18418	583.40887	613.94714	
5075	50.740	-249.69989	21.02178	-164.15286	157.88681	19.68035	-209.63336	-183.41278	14.34777	440.14456	219.15228	17.16185	427.88400	1.56259	1109.52283	-619.82166	-141.68227	577.59369	-309.56607	17.90165	581.01697	-327.52576	-38.07922	585.72980	630.00964	117.59515	582.53375	613.72986	
5076	50.750	-249.57013	21.05211	-164.06528	158.16559	19.78516	-209.52985	-183.31032	14.25451	440.09512	219.64568	17.01978	428.13757	2.57992	1109.33850	-620.24170	-141.40172	577.85193	-309.18256	18.01964	581.08850	-327.25775	-37.98154	585.46307	630.22034	118.02598	582.65753	614.36127	
5077	50.760	-249.37810	21.12060	-163.93327	158.46725	19.88307	-209.42039	-182.98427	14.01924	440.12698	220.00694	16.79823	428.13391	3.87698	1109.13367	-620.73877	-141.35464	577.82245	-309.08081	18.12760	581.22870	-326.99197	-37.81779	585.13849	630.39673	118.45719	582.53339	614.59900	
5078	50.770	-248.96646	21.13258	-163.86380	158.91873	20.10455	-209.32205	-182.63463	13.75491	440.24857	220.45015	16.68041	428.13898	5.51746	1109.09229	-621.14301	-141.52817	578.17047	-309.05319	18.24536	581.30328	-326.79492	-37.85088	584.91711	630.56110	118.79620	582.36145	614.69122	
5079	50.780	-248.46385	21.21492	-163.87030	159.46634	20.26391	-209.14426	-182.24440	13.54889	440.29984	220.68539	16.58160	428.18494	6.80032	1108.85217	-621.60382	-141.39262	578.45221	-308.83234	18.46449	581.47241	-326.59955	-37.85683	584.73199	630.76746	118.52505	581.89319	614.89465	
5080	50.790	-248.15794	21.41502	-163.76582	159.86113	20.35455	-209.05887	-181.81976	13.30340	440.34503	220.84213	16.23912	428.35471	8.30148	1108.83752	-621.88483	-141.10880	578.77765	-308.67160	18.31958	581.49646	-326.13351	-37.86309	584.60278	630.91370	118.56035	581.31439	615.34766	
5081	50.800	-247.74774	21.44700	-163.70807	160.08858	20.41110	-209.08043	-181.55186	13.12608	440.32346	221.29906	16.00531	428.54855	9.53112	1108.84900	-622.28522	-140.74945	579.01263	-308.44971	18.90273	581.68134	-326.27707	-37.59523	584.37152	631.20013	118.93761	581.28070	615.69604	
5082	50.810	-247.34033	21.51344	-163.61906	160.32030	20.52679	-209.00304	-181.21899	12.85936	440.53036	221.38736	15.70164	428.56305	10.89782	1108.86621	-622.66180	-140.26709	579.05096	-308.18506	18.76311	581.75238	-325.89636	-37.26637	584.20398	631.53809	118.99596	581.12122	615.87921	
5083	50.820	-247.04836	21.65118	-163.59615	160.84029	20.76894	-208.74498	-180.81676	12.49978	440.60242	221.72023	15.40248	428.42920	12.14565	1108.81042	-622.90295	-140.11436	579.09650	-308.05844	18.97479	581.79865	-325.73975	-37.15641	584.01312	631.73120	119.06989	580.89008	615.92511	
5084	50.830	-246.62256	21.86127	-163.55785	161.24565	20.93809	-208.60133	-180.47295	12.31296	440.70370	222.48671	15.40239	428.53607	13.74600	1108.86780	-622.91522	-139.66711	579.29327	-307.75934	19.34420	581.85608	-325.51270	-37.28708	583.71625	631.53229	118.96210	580.24524	616.16730	
5085	50.840	-246.28775	21.97699	-163.38741	161.61929	21.02258	-208.45670	-180.05203	12.14252	440.79428	222.89009	15.14161	428.64618	14.89217	1108.86963	-623.17725	-138.86693	579.37891	-307.45981	20.46616	582.05542	-325.40115	-36.59415	583.41913	632.08765	119.51768	580.33380	616.53070	
5086	50.850	-245.74092	22.02372	-163.21613	161.95580	21.04799	-208.35722	-179.36467	11.79743	440.79285	223.38208	14.88463	428.81784	16.25800	1108.85071	-623.33423	-138.97322	579.95654	-307.67093	20.69639	582.12109	-325.22919	-36.38964	583.28693	632.18713	119.63065	580.02240	616.57349	
5087	50.860	-245.11705	22.08064	-163.06392	162.28008	21.11832	-208.34676	-178.90083	11.51981	440.84903	223.21170	14.72948	428.97513	17.70856	1108.86951	-623.24646	-138.93227	580.15204	-307.48077	21.12797	582.29419	-324.97217	-35.87880	583.02106	631.97839	120.03226	579.70062	616.72443	
5088	50.870	-244.72891	22.12462	-163.18460	162.93317	21.36019	-208.20308	-178.57863	11.38088	440.80011	223.89095	14.41576	428.73654	18.98482	1108.87036	-623.37878	-138.25549	580.32666	-307.19580	21.45457	582.42902	-324.82886	-35.66603	582.98492	632.11633	120.34521	579.39966	616.87250	
5089	50.880	-244.44533	22.22060	-163.24165	163.44591	21.54656	-208.10258	-178.18600	11.12749	440.90967	224.50493	14.20817	428.91824	20.00813	1108.90430	-623.25128	-137.48674	580.19128	-306.98721	22.68857	582.46216	-324.74878	-35.53154	582.89404	632.29456	120.57197	579.19873	617.23053	
